inDegrees=yes
name=IK-live
DataType=double
version=3
OpenSimVersion=4.1
endheader
time	pelvis_tilt	pelvis_list	pelvis_rotation	pelvis_tx	pelvis_ty	pelvis_tz	hip_flexion_r	hip_adduction_r	hip_rotation_r	knee_angle_r	ankle_angle_r	subtalar_angle_r	mtp_angle_r	hip_flexion_l	hip_adduction_l	hip_rotation_l	knee_angle_l	ankle_angle_l	subtalar_angle_l	mtp_angle_l	lumbar_extension	lumbar_bending	lumbar_rotation	neck_flex	neck_latbend	neck_rot	arm_flex_r	arm_add_r	arm_rot_r	elbow_flex_r	pro_sup_r	wrist_flex_r	wrist_dev_r	arm_flex_l	arm_add_l	arm_rot_l	elbow_flex_l	pro_sup_l	wrist_flex_l	wrist_dev_l
24.5504786	15.83184391065478	-13.46024585506555	-160.858863780731	0.2341366603171506	0.04326292228651554	-1.326684523481465	-22.57117169827992	-1.591976316804377	-3.241458145969817	5.899560354604904	2.451982624139334	1.987972377786656	0	-24.74788768789517	-3.395140484746916	-11.58000132048591	9.793848132074926	-0.4439473045988533	4.250290820099795	0	-21.37711699760957	1.659277491615732	3.206407148933037	0	0	0	0.7813422140482315	-15.17649753359731	33.30990302120532	7.028988138817327	24.87799672566107	0	0.01415993297245895	5.872217138075721	-13.22984218728276	43.89665531342703	6.844228029804908	33.48199072498369	0	0.01415993297245895
24.7023887	15.33886904675908	-23.48417440956159	-151.0974384123157	0.2341366603171506	0.04326292228651554	-1.326684523481465	-22.57117169827992	-1.591976316804377	-3.241458145969817	5.899560354604904	2.451982624139334	1.987972377786656	0	-24.74788768789517	-3.395140484746916	-11.58000132048591	9.793848132074926	-0.4439473045988533	4.250290820099795	0	-21.37711699760957	1.659277491615732	3.206407148933037	0	0	0	0.7809392384624102	-15.17649928293427	33.3104159297709	7.023288848643299	24.87674159901036	0	0.01359968425755772	5.871849949611732	-13.22982463782598	43.89741507194189	6.838409088683574	33.48136548130834	0	0.01359968425755772
24.8612037	16.91341685897854	-34.29756589962151	-138.2748018358971	0.2341366603171506	0.04326292228651554	-1.326684523481465	-22.57117169827992	-1.591976316804377	-3.241458145969817	5.899560354604904	2.451982624139334	1.987972377786656	0	-24.74788768789517	-3.395140484746916	-11.58000132048591	9.793848132074926	-0.4439473045988533	4.250290820099795	0	-21.37711699760957	1.659277491615732	3.206407148933037	0	0	0	0.7813480632567242	-15.176497485006	33.3098786349946	7.031449663909489	24.87816259864969	0	0.01425488729577447	5.872221873107806	-13.22984267503746	43.89661172240997	6.846822892794232	33.48205915536656	0	0.01425488729577447
25.0141085	19.92974338929409	-33.63863173048382	-132.4958265343774	0.2341366603171506	0.04326292228651554	-1.326684523481465	-22.57117169827992	-1.591976316804377	-3.241458145969817	5.899560354604904	2.451982624139334	1.987972377786656	0	-24.74788768789517	-3.395140484746916	-11.58000132048591	9.793848132074926	-0.4439473045988533	4.250290820099795	0	-21.37711699760957	1.659277491615732	3.206407148933037	0	0	0	0.7796891526979893	-15.17650474677399	33.31203430307669	7.001950470376936	24.87260661120238	0	0.01171873183484206	5.870711813623308	-13.2297698237943	43.89982442254781	6.816508606079551	33.47932871481434	0	0.01171873183484206
25.1770872	20.83515249514062	-33.21213029734018	-128.3412377585773	0.2341366603171506	0.04326292228651554	-1.326684523481465	-22.57117169827992	-1.591976316804377	-3.241458145969817	5.899560354604904	2.451982624139334	1.987972377786656	0	-24.74788768789517	-3.395140484746916	-11.58000132048591	9.793848132074926	-0.4439473045988533	4.250290820099795	0	-21.37711699760957	1.659277491615732	3.206407148933037	0	0	0	0.779577876320838	-15.17650523393091	33.312178942873	6.999976723400956	24.8722334275502	0	0.0115482753077726	5.87061052229801	-13.2297649365559	43.90004000634606	6.814481075179597	33.47914534977043	0	0.0115482753077726
25.3379168	46.452426535675	-28.31109433333472	-84.09582852802339	0.2341366603171506	0.04326292228651554	-1.326684523481465	-22.57117169827992	-1.591976316804377	-3.241458145969817	5.899560354604904	2.451982624139334	1.987972377786656	0	-24.74788768789517	-3.395140484746916	-11.58000132048591	9.793848132074926	-0.4439473045988533	4.250290820099795	0	-21.37711699760957	1.659277491615732	3.206407148933037	0	0	0	0.7822109039584288	-15.17649373295726	33.30877511930536	7.04452719321459	24.88091049272137	0	0.01549260095074806	5.873007959537471	-13.22988031590559	43.8949743218643	6.860195664985828	33.48342158676373	0	0.01549260095074806
25.4899506	71.67045437544357	-9.928642750510532	-49.57491121391427	0.2341366603171506	0.04326292228651554	-1.326684523481465	-22.57117169827992	-1.591976316804377	-3.241458145969817	5.899560354604904	2.451982624139334	1.987972377786656	0	-24.74788768789517	-3.395140484746916	-11.58000132048591	9.793848132074926	-0.4439473045988533	4.250290820099795	0	-21.37711699760957	1.659277491615732	3.206407148933037	0	0	0	0.7846422410289782	-15.17648312327899	33.30564001062956	7.084320710477661	24.88884422345596	0	0.01908739539942389	5.875222003350336	-13.22998675352631	43.89031236559056	6.90099174124057	33.48733931757106	0	0.01908739539942389
25.6498025	12.9511067122649	-47.25447587360446	-113.0035536481221	0.2341366603171506	0.04326292228651554	-1.326684523481465	-22.57117169827992	-1.591976316804377	-3.241458145969817	5.899560354604904	2.451982624139334	1.987972377786656	0	-24.74788768789517	-3.395140484746916	-11.58000132048591	9.793848132074926	-0.4439473045988533	4.250290820099795	0	-21.37711699760957	1.659277491615732	3.206407148933037	0	0	0	0.7799073095704744	-15.17650379353193	33.31175161753668	7.006081833655614	24.87334042146669	0	0.01205555191998683	5.870910452633555	-13.22977938685962	43.89940309037475	6.820766097803955	33.47968821422293	0	0.01205555191998683
25.801748	41.84597742855362	-48.48560180528393	-87.92341531000254	0.2341366603171506	0.04326292228651554	-1.326684523481465	-22.57117169827992	-1.591976316804377	-3.241458145969817	5.899560354604904	2.451982624139334	1.987972377786656	0	-24.74788768789517	-3.395140484746916	-11.58000132048591	9.793848132074926	-0.4439473045988533	4.250290820099795	0	-21.37711699760957	1.659277491615732	3.206407148933037	0	0	0	0.7824502765895878	-15.17649266322395	33.30844794622523	7.051172424142686	24.88185567146304	0	0.01594336990600602	5.873225294924954	-13.22989104791236	43.89447964902205	6.867092627151052	33.48387296980599	0	0.01594336990600602
